<svg id="Capa_1" enable-background="new 0 0 512 512" height="512" viewBox="0 0 512 512" width="512" xmlns="http://www.w3.org/2000/svg"><g><path d="m319.21 445.892c-9.486-6.328-15.263-17.521-15.263-29.575v-30.161l-4.379-4.181h-82.929l-8.585 4.181v30.161c0 12.054-5.776 23.247-15.263 29.575l-21.257 14.18 4.414 4.06h160.965l3.556-4.06z" fill="#4a80aa"/><path d="m236.69 445.892c9.487-6.328 15.263-17.521 15.263-29.575v-30.161l8.585-4.181h-43.9l-8.585 4.181v30.161c0 12.054-5.776 23.247-15.263 29.575l-21.257 14.18 4.414 4.06h43.9l-4.414-4.06z" fill="#407093"/><g><path d="m482.311 19.791h-452.622c-16.371 0-29.689 13.318-29.689 29.689v306.986c0 16.371 13.318 29.689 29.689 29.689h452.622c16.371 0 29.689-13.318 29.689-29.689v-306.986c0-16.371-13.318-29.689-29.689-29.689z" fill="#3f6d8e"/></g><path d="m33.652 356.467v-306.987c0-16.371 13.318-29.689 29.689-29.689h-33.652c-16.371 0-29.689 13.318-29.689 29.689v306.986c0 16.371 13.318 29.689 29.689 29.689h33.652c-16.37.001-29.689-13.317-29.689-29.688z" fill="#365e7d"/><path d="m475.212 85.8h-435.763l-7.312 4.336v259.611c0 2.36 1.912 4.272 4.272 4.272h31.056l6.494-5.18h182.041l6.728 5.18h212.863c2.359 0 4.272-1.912 4.272-4.272 0-134.752 0-123.787 0-259.611z" fill="#e4f6ff"/><path d="m233.144 238.681c-3.223-1.662-6.08-3.556-8.192-6.026-1.1-1.307-1.704-2.96-1.704-4.669v-44.522-.862c0-32.37-26.448-58.562-58.916-58.144-31.957.411-57.382 27.05-57.382 59.01v44.506c0 1.709-.611 3.361-1.723 4.659l-.019.022c-2.112 2.47-4.97 4.365-8.192 6.026-9.853 5.08-12.735 33.366 6.333 42.265l2.547 2.648h116.066l4.858-2.652c19.058-8.904 16.175-37.182 6.324-42.261z" fill="#b06c6c"/><path d="m121.225 238.681c3.223-1.662 6.08-3.556 8.192-6.026l.019-.022c1.112-1.297 1.723-2.95 1.723-4.659v-44.506c0-28.08 19.629-52.045 46.068-57.73-4.154-.882-8.466-1.336-12.895-1.279-31.957.411-57.382 27.05-57.382 59.01v44.506c0 1.709-.611 3.361-1.723 4.659l-.019.022c-2.112 2.47-4.97 4.365-8.192 6.026-9.853 5.08-12.735 33.366 6.333 42.265l2.547 2.648h24.209l-2.547-2.648c-19.069-8.901-16.186-37.186-6.333-42.266z" fill="#9d5e5e"/><path d="m67.465 354.018 6.494-5.18h4.572v-263.038h-39.082l-7.312 4.336v259.611c0 2.36 1.912 4.272 4.272 4.272 1.091 0 12.534 0 31.056-.001z" fill="#d3effb"/><path d="m358.16 460.072h-204.32c-5.689 0-10.301 4.612-10.301 10.301v11.535c0 5.69 4.612 10.301 10.301 10.301h204.32c5.689 0 10.301-4.612 10.301-10.301v-11.535c0-5.69-4.612-10.301-10.301-10.301z" fill="#3f6d8e"/><path d="m187.439 481.908v-11.535c0-5.69 4.612-10.301 10.301-10.301h-43.9c-5.689 0-10.301 4.612-10.301 10.301v11.535c0 5.69 4.612 10.301 10.301 10.301h43.9c-5.689 0-10.301-4.612-10.301-10.301z" fill="#365e7d"/><g fill="#3f6d8e"><path d="m305.151 146.026h-10.501c-4.267 0-7.726-3.459-7.726-7.726s3.459-7.726 7.726-7.726h10.501c4.267 0 7.726 3.459 7.726 7.726s-3.459 7.726-7.726 7.726z"/><path d="m305.151 178.19h-10.501c-4.267 0-7.726-3.459-7.726-7.726s3.459-7.726 7.726-7.726h10.501c4.267 0 7.726 3.459 7.726 7.726s-3.459 7.726-7.726 7.726z"/><path d="m305.151 210.354h-10.501c-4.267 0-7.726-3.459-7.726-7.726s3.459-7.726 7.726-7.726h10.501c4.267 0 7.726 3.459 7.726 7.726s-3.459 7.726-7.726 7.726z"/><path d="m305.151 242.519h-10.501c-4.267 0-7.726-3.459-7.726-7.726s3.459-7.726 7.726-7.726h10.501c4.267 0 7.726 3.459 7.726 7.726s-3.459 7.726-7.726 7.726z"/><path d="m305.151 274.287h-10.501c-4.267 0-7.726-3.459-7.726-7.726s3.459-7.726 7.726-7.726h10.501c4.267 0 7.726 3.459 7.726 7.726s-3.459 7.726-7.726 7.726z"/><path d="m305.151 306.451h-10.501c-4.267 0-7.726-3.459-7.726-7.726 0-4.268 3.459-7.726 7.726-7.726h10.501c4.267 0 7.726 3.459 7.726 7.726s-3.459 7.726-7.726 7.726z"/></g><path d="m431.519 146.026h-97.036c-4.267 0-7.726-3.459-7.726-7.726s3.459-7.726 7.726-7.726h97.036c4.267 0 7.726 3.459 7.726 7.726s-3.459 7.726-7.726 7.726z" fill="#b1e4f9"/><path d="m431.519 178.19h-97.036c-4.267 0-7.726-3.459-7.726-7.726s3.459-7.726 7.726-7.726h97.036c4.267 0 7.726 3.459 7.726 7.726s-3.459 7.726-7.726 7.726z" fill="#b1e4f9"/><path d="m431.519 210.354h-97.036c-4.267 0-7.726-3.459-7.726-7.726s3.459-7.726 7.726-7.726h97.036c4.267 0 7.726 3.459 7.726 7.726s-3.459 7.726-7.726 7.726z" fill="#b1e4f9"/><path d="m431.519 242.519h-97.036c-4.267 0-7.726-3.459-7.726-7.726s3.459-7.726 7.726-7.726h97.036c4.267 0 7.726 3.459 7.726 7.726s-3.459 7.726-7.726 7.726z" fill="#b1e4f9"/><path d="m431.519 274.287h-97.036c-4.267 0-7.726-3.459-7.726-7.726s3.459-7.726 7.726-7.726h97.036c4.267 0 7.726 3.459 7.726 7.726s-3.459 7.726-7.726 7.726z" fill="#b1e4f9"/><path d="m431.519 306.451h-97.036c-4.267 0-7.726-3.459-7.726-7.726 0-4.268 3.459-7.726 7.726-7.726h97.036c4.267 0 7.726 3.459 7.726 7.726s-3.459 7.726-7.726 7.726z" fill="#b1e4f9"/><g><path d="m242.062 286.845c-1.982-.767-31.12-12.052-45.536-17.635-6.818 9.748-18.112 16.145-30.885 16.145-14.121 0-25.331-6.593-31.996-16.155-13.911 5.393-45.049 17.465-45.514 17.645-8.835 3.636-20.666 15.077-20.666 32.054v35.119h195.262v-35.119c.001-14.62-9.36-27.401-20.665-32.054z" fill="#b3e59f"/></g><path d="m110.661 354.018v-35.339c0-4.268-3.459-7.726-7.726-7.726s-7.726 3.459-7.726 7.726v35.339z" fill="#95d6a4"/><path d="m234.987 354.018v-35.339c0-4.268-3.459-7.726-7.726-7.726s-7.726 3.459-7.726 7.726v35.339z" fill="#95d6a4"/><path d="m78.531 51.928h-42.122c-2.359 0-4.272 1.912-4.272 4.272v33.936h46.394l1.867-1.502v-34.125z" fill="#dd636e"/><path d="m475.591 51.928h-397.06v38.208h401.332c0-17.883 0-30.34 0-33.936 0-2.36-1.913-4.272-4.272-4.272z" fill="#b1e4f9"/><path d="m132.555 269.622c6.493 10.442 18.17 17.793 33.086 17.793 13.476 0 25.316-7.115 31.979-17.781-4.875-1.888-8.328-3.225-8.953-3.467-1.464-.566-2.438-1.975-2.442-3.554l-.011-15.892c-5.934 4.051-13.072 6.422-20.733 6.397-8.331-.028-15.624-2.397-21.538-6.321v15.794c0 2.924-2.608 3.629-3.72 4.06-.199.076-3.2 1.239-7.668 2.971z" fill="#ffcebe"/><path d="m83.746 313.812c0-12.096 7.014-22.932 13.882-30.649-5.51 2.136-9.336 3.619-9.497 3.682-8.835 3.636-20.666 15.077-20.666 32.054v35.119h16.281c0-12.357 0-28.024 0-40.206z" fill="#95d6a4"/><path d="m165.096 253.102c-8.169-.1-15.331-2.444-21.152-6.306v15.794c0 2.924-2.608 3.629-3.72 4.06-.2.078-3.201 1.241-7.669 2.973 6.413 10.313 17.888 17.597 32.541 17.776z" fill="#ffb1a0"/><path d="m198.409 192.171h-5.934c-1.177 0-1.266-.03-7.792-.584-9.049-.767-16.814-7.636-18.971-16.503-.069-.286-.32-.49-.614-.49s-.545.204-.614.49c-2.191 9.037-10.146 15.849-19.179 16.541.53-.041-6.677.546-7.959.546h-5.561c-2.355 0-4.263 1.909-4.263 4.263v22.734c0 19.458 15.326 37.232 38.485 37.039 20.37-.17 36.667-17.033 36.667-37.403v-22.369c-.002-2.356-1.91-4.264-4.265-4.264z" fill="#ffdecf"/><path d="m151.729 219.168v-29.12c-2.029.859-4.194 1.406-6.426 1.577.529-.041-6.678.546-7.959.546h-5.561c-2.355 0-4.263 1.909-4.263 4.263v22.734c0 19.458 15.326 37.232 38.485 37.039 3.969-.033 7.78-.707 11.35-1.911-15.798-5.065-25.626-19.553-25.626-35.128z" fill="#ffcebe"/></g></svg>