<?xml version="1.0" encoding="iso-8859-1"?>
<!-- Generator: Adobe Illustrator 19.0.0, SVG Export Plug-In . SVG Version: 6.00 Build 0)  -->
<svg version="1.1" id="Capa_1" xmlns="http://www.w3.org/2000/svg" xmlns:xlink="http://www.w3.org/1999/xlink" x="0px" y="0px"
	 viewBox="0 0 512 512" style="enable-background:new 0 0 512 512;" xml:space="preserve">
<g>
	<g transform="translate(1 1)">
		<rect x="186.733" y="384.022" style="fill:#37474F;" width="136.533" height="59.733"/>
		<rect x="186.733" y="384.022" style="fill:#607D8B;" width="110.933" height="59.733"/>
		<path style="fill:#00838F;" d="M502.467,51.222l0.004,273.067H7.529L7.533,51.222c-0.141-9.19,3.377-18.059,9.779-24.654
			s15.164-10.373,24.354-10.503h426.667c9.19,0.13,17.952,3.909,24.354,10.503C499.09,33.162,502.608,42.032,502.467,51.222z"/>
		<path style="fill:#00BCD4;" d="M476.867,51.222l0.004,273.067H7.529L7.533,51.222c-0.141-9.19,3.377-18.059,9.779-24.654
			s15.164-10.373,24.354-10.503h401.067c9.19,0.13,17.952,3.909,24.354,10.503C473.49,33.162,477.008,42.032,476.867,51.222z"/>
		<path style="fill:#37474F;" d="M502.467,315.755v34.133c0,18.851-15.282,34.133-34.133,34.133H41.667
			c-18.851,0-34.133-15.282-34.133-34.133v-34.133H502.467z"/>
		<path style="fill:#607D8B;" d="M476.867,315.755v34.133c0,18.851-15.282,34.133-34.133,34.133H41.667
			c-18.851,0-34.133-15.282-34.133-34.133v-34.133H476.867z"/>
		<path style="fill:#37474F;" d="M391.533,460.822v17.067H118.467v-17.067c0.028-9.414,7.653-17.039,17.067-17.067h238.933
			C383.881,443.783,391.505,451.408,391.533,460.822z"/>
		<path style="fill:#607D8B;" d="M365.933,460.822v17.067H118.467v-17.067c0.028-9.414,7.653-17.039,17.067-17.067h213.333
			C358.281,443.783,365.905,451.408,365.933,460.822z"/>
		<path style="fill:#AD1457;" d="M186.733,119.488c0,37.703-30.564,68.267-68.267,68.267c-4.294-0.005-8.579-0.405-12.8-1.195
			c-32.225-6.109-55.551-34.273-55.551-67.072s23.326-60.963,55.551-67.072c4.221-0.79,8.506-1.19,12.8-1.195
			C156.169,51.222,186.733,81.786,186.733,119.488z"/>
		<path style="fill:#E91E63;" d="M161.133,119.488c0.049,32.759-23.205,60.922-55.381,67.072h-0.085
			c-1.621-0.341-3.157-0.683-4.693-1.109c-1.858-0.439-3.683-1.01-5.461-1.707c-1.792-0.597-3.584-1.365-5.291-2.133
			c-1.707-0.768-3.243-1.536-4.864-2.475c-0.128-0.021-0.247-0.081-0.341-0.171c-1.109-0.597-2.219-1.28-3.243-1.963
			c-0.683-0.427-1.365-0.853-2.048-1.365c-1.024-0.683-1.963-1.365-2.901-2.133c-0.333-0.199-0.647-0.428-0.939-0.683
			c-20.832-16.631-30.079-43.866-23.679-69.743s27.277-45.661,53.46-50.663C137.858,58.561,161.141,86.715,161.133,119.488z"/>
		<g>
			<circle style="fill:#F5F5F5;" cx="118.467" cy="110.955" r="25.6"/>
			<path style="fill:#F5F5F5;" d="M50.2,256.022h68.267c4.713,0,8.533,3.82,8.533,8.533v51.2H41.667v-51.2
				C41.667,259.842,45.487,256.022,50.2,256.022z"/>
			<path style="fill:#F5F5F5;" d="M169.667,256.022h68.267c4.713,0,8.533,3.82,8.533,8.533v51.2h-85.333v-51.2
				C161.133,259.842,164.954,256.022,169.667,256.022z"/>
		</g>
		<path style="fill:#9E9E9E;" d="M161.133,170.688c0.014,0.712-0.014,1.425-0.085,2.133c-12.086,9.669-27.104,14.936-42.581,14.933
			c-4.266-0.005-8.522-0.405-12.715-1.195c21.549-4.173,39.794-18.42,49.067-38.315
			C158.966,154.995,161.153,162.766,161.133,170.688z"/>
		<path style="fill:#F5F5F5;" d="M154.819,148.246c-9.273,19.895-27.517,34.141-49.067,38.315c-1.621-0.341-3.243-0.683-4.779-1.109
			c-1.858-0.439-3.683-1.01-5.461-1.707c-1.792-0.597-3.584-1.365-5.291-2.133c-1.707-0.768-3.243-1.536-4.864-2.475
			c-0.128-0.021-0.247-0.081-0.341-0.171c-1.109-0.597-2.219-1.28-3.243-1.963c-0.683-0.427-1.365-0.853-2.048-1.365
			c-1.024-0.683-1.963-1.365-2.901-2.133c-0.333-0.199-0.647-0.428-0.939-0.683c-0.071-0.709-0.1-1.421-0.085-2.133
			c0.049-17.439,10.637-33.119,26.795-39.68h0.085c9.226,7.395,22.348,7.395,31.573,0h0.085
			C142.777,134.509,149.929,140.529,154.819,148.246z"/>
		<path style="fill:#AD1457;" d="M502.467,203.798V313.11c0,0,0,113.067-119.467,180.821c-4.437-2.475-8.704-5.12-12.8-7.765
			C263.533,417.899,263.533,313.11,263.533,313.11V203.798c0.028-9.414,7.653-17.039,17.067-17.067h204.8
			C494.814,186.759,502.439,194.384,502.467,203.798z"/>
		<path style="fill:#E91E63;" d="M476.867,203.798V313.11c0,0,0,104.789-106.667,173.056
			C263.533,417.899,263.533,313.11,263.533,313.11V203.798c0.028-9.414,7.653-17.039,17.067-17.067h179.2
			C469.214,186.759,476.839,194.384,476.867,203.798z"/>
		<path style="fill:#FDD834;" d="M468.333,220.864v92.245c-0.085,3.413-2.304,84.053-85.333,140.629
			c-4.551-3.072-8.818-6.229-12.8-9.472c-71.595-56.491-72.533-130.304-72.533-131.157v-92.245H468.333z"/>
		<path style="fill:#FFEB3A;" d="M442.733,220.864v92.245c-0.085,3.243-2.048,75.52-72.533,131.157
			c-71.595-56.491-72.533-130.304-72.533-131.157v-92.245H442.733z"/>
	</g>
	<g>
		<path d="M469.333,8.531H42.667C19.114,8.559,0.028,27.645,0,51.198v298.667c0.028,23.552,19.114,42.638,42.667,42.667H179.2
			v42.667h-42.667c-14.138,0-25.6,11.462-25.6,25.6v17.067c0,4.713,3.821,8.533,8.533,8.533h235.375
			c8.033,5.747,16.358,11.073,24.943,15.957c2.614,1.485,5.817,1.485,8.431,0C510.592,432.902,512,318.965,512,314.144V51.198
			C511.972,27.645,492.886,8.559,469.333,8.531z M42.667,25.598h426.667c14.138,0,25.6,11.462,25.6,25.6v129.57
			c-2.733-1.011-5.62-1.542-8.533-1.57H281.6c-14.138,0-25.6,11.462-25.6,25.6v8.533H51.2c-4.713,0-8.533,3.821-8.533,8.533
			s3.821,8.533,8.533,8.533H256v76.8h-85.333v-42.667H230.4c4.713,0,8.533-3.82,8.533-8.533s-3.821-8.533-8.533-8.533h-59.733
			c-9.426,0-17.067,7.641-17.067,17.067v42.667h-17.067v-42.667c0-9.426-7.641-17.067-17.067-17.067H51.2
			c-9.426,0-17.067,7.641-17.067,17.067v42.667H17.067v-256C17.067,37.059,28.528,25.598,42.667,25.598z M119.467,307.198H51.2
			v-42.667h68.267V307.198z M17.067,349.864v-25.6h239.539c1.868,17.504,5.925,34.705,12.075,51.2H42.667
			c-6.79,0-13.301-2.697-18.102-7.498C19.764,363.165,17.067,356.654,17.067,349.864z M196.267,392.531h79.497
			c7.009,15.118,15.647,29.425,25.762,42.667H196.267V392.531z M128,469.331v-8.533c0-4.713,3.821-8.533,8.533-8.533h179.311
			c5.333,5.769,11.196,11.469,17.51,17.067H128z M494.933,314.135c0,4.361-1.647,106.385-110.933,170.94
			c-21.474-12.502-40.905-28.221-57.617-46.609c-0.255-0.36-0.54-0.697-0.853-1.007c-14.708-16.485-26.767-35.153-35.746-55.339
			c-0.229-1.009-0.643-1.966-1.22-2.825c-9.142-20.575-14.396-42.664-15.497-65.152V204.798c0-4.713,3.82-8.533,8.533-8.533h204.8
			c4.713,0,8.533,3.821,8.533,8.533V314.135z"/>
		<path d="M71.194,179.121l0.162,0.119c27.978,22.642,67.959,22.706,96.009,0.154c0.142-0.095,0.279-0.197,0.41-0.307
			c25.304-20.462,34.966-54.65,24.114-85.33c-10.852-30.679-39.862-51.189-72.404-51.189S57.932,63.078,47.08,93.757
			s-1.191,64.868,24.114,85.33V179.121z M85.495,168.531c0.731-11.683,7.398-22.176,17.664-27.802
			c10.108,5.785,22.524,5.785,32.631,0c10.262,5.631,16.922,16.128,17.647,27.81c-20.414,14.223-47.528,14.223-67.942,0V168.531z
			 M119.467,127.998c-9.426,0-17.067-7.641-17.067-17.067s7.641-17.067,17.067-17.067s17.067,7.641,17.067,17.067
			S128.892,127.998,119.467,127.998z M119.467,59.731c22.415-0.043,42.959,12.489,53.179,32.439
			c10.22,19.949,8.387,43.945-4.744,62.111c-3.549-10.415-10.36-19.41-19.422-25.651c3.313-5.311,5.086-11.438,5.12-17.698
			c0-18.851-15.282-34.133-34.133-34.133S85.333,92.08,85.333,110.931c0.034,6.26,1.807,12.387,5.12,17.698
			c-9.062,6.241-15.872,15.236-19.422,25.651c-13.131-18.166-14.963-42.161-4.744-62.111S97.052,59.688,119.467,59.731z"/>
		<path d="M221.867,85.331h247.467c4.713,0,8.533-3.821,8.533-8.533s-3.821-8.533-8.533-8.533H221.867
			c-4.713,0-8.533,3.821-8.533,8.533S217.154,85.331,221.867,85.331z"/>
		<path d="M221.867,119.464h247.467c4.713,0,8.533-3.821,8.533-8.533c0-4.713-3.821-8.533-8.533-8.533H221.867
			c-4.713,0-8.533,3.821-8.533,8.533C213.333,115.644,217.154,119.464,221.867,119.464z"/>
		<path d="M221.867,153.598H307.2c4.713,0,8.533-3.82,8.533-8.533s-3.82-8.533-8.533-8.533h-85.333
			c-4.713,0-8.533,3.821-8.533,8.533S217.154,153.598,221.867,153.598z"/>
		<path d="M460.8,213.331c-4.713,0-8.533,3.821-8.533,8.533s3.82,8.533,8.533,8.533v83.627
			c-0.051,3.217-2.176,79.548-81.604,133.692c-2.612,1.677-4.108,4.641-3.905,7.739c0.203,3.098,2.073,5.841,4.882,7.163
			s6.115,1.013,8.631-0.805c86.656-59.042,89.003-143.949,89.062-147.669v-83.746C477.867,220.972,470.226,213.331,460.8,213.331z"
			/>
		<path d="M307.2,314.144v-83.746h93.867c4.713,0,8.533-3.821,8.533-8.533s-3.821-8.533-8.533-8.533H307.2
			c-9.426,0-17.067,7.641-17.067,17.067v83.746c2.396,34.912,14.81,68.392,35.755,96.427c1.79,2.469,4.761,3.797,7.794,3.481
			c3.033-0.315,5.668-2.225,6.912-5.009c1.244-2.785,0.908-6.021-0.882-8.491C320.929,375.399,309.656,345.44,307.2,314.144z"/>
		<path d="M441.233,274.498c-3.332-3.331-8.734-3.331-12.066,0l-63.3,63.3l-9.967-9.967c-3.348-3.234-8.671-3.188-11.962,0.104
			c-3.292,3.292-3.338,8.614-0.104,11.962l16,16c3.332,3.331,8.734,3.331,12.066,0l69.333-69.333
			C444.564,283.232,444.564,277.83,441.233,274.498z"/>
	</g>
</g>
<g>
</g>
<g>
</g>
<g>
</g>
<g>
</g>
<g>
</g>
<g>
</g>
<g>
</g>
<g>
</g>
<g>
</g>
<g>
</g>
<g>
</g>
<g>
</g>
<g>
</g>
<g>
</g>
<g>
</g>
</svg>
