<svg id="line" height="512" viewBox="0 0 64 64" width="512" xmlns="http://www.w3.org/2000/svg"><path d="m58 19.5h-32a5 5 0 0 0 -5 5v32a5 5 0 0 0 5 5h32a5 5 0 0 0 5-5v-32a5 5 0 0 0 -5-5zm-10.21 24.35 1.14 12.56a1 1 0 0 1 -1 1.09h-11.87a1 1 0 0 1 -1-1.09l1.14-12.56a11 11 0 1 1 11.58 0z" fill="#c4a2fc"/><g fill="#151a6a"><path d="m46 2.5h-42a3 3 0 0 0 -3 3v31a3 3 0 0 0 3 3h16v5h-3a1 1 0 0 0 0 2h16a1 1 0 0 0 0-2h-3v-5h16a3 3 0 0 0 3-3v-31a3 3 0 0 0 -3-3zm-18 42h-6v-5h6zm19-8a1 1 0 0 1 -1 1h-42a1 1 0 0 1 -1-1v-3h44zm0-5h-44v-26a1 1 0 0 1 1-1h42a1 1 0 0 1 1 1z"/><path d="m43 7.5h-36a1 1 0 0 0 -1 1v7a1 1 0 0 0 1 1h36a1 1 0 0 0 1-1v-7a1 1 0 0 0 -1-1zm-1 7h-34v-5h34z"/><path d="m43 19.5h-36a1 1 0 0 0 -1 1v7a1 1 0 0 0 1 1h36a1 1 0 0 0 1-1v-7a1 1 0 0 0 -1-1zm-1 7h-34v-5h34z"/></g></svg>