<svg id="Capa_1" enable-background="new 0 0 512 512" height="512" viewBox="0 0 512 512" width="512" xmlns="http://www.w3.org/2000/svg"><g><g fill="#dbedff"><path d="m273.2 86.968c1.431 2.479 4.028 3.865 6.698 3.865 1.311 0 2.639-.334 3.856-1.037 3.696-2.133 4.962-6.859 2.828-10.554l-28.072-48.623c-2.134-3.696-6.859-4.962-10.554-2.828-3.696 2.133-4.962 6.859-2.828 10.554z"/><path d="m239.099 425.547c-2.133-3.696-6.86-4.962-10.554-2.828-3.696 2.133-4.962 6.859-2.828 10.554l27.191 47.096c1.431 2.479 4.028 3.865 6.698 3.865 1.311 0 2.639-.334 3.856-1.037 3.696-2.133 4.962-6.859 2.828-10.554z"/><path d="m228.457 196.492c1.22.707 2.552 1.043 3.867 1.043 2.665 0 5.26-1.382 6.692-3.854l47.56-82.078c2.139-3.692.881-8.419-2.811-10.559-3.693-2.139-8.419-.88-10.559 2.811l-47.56 82.078c-2.139 3.692-.881 8.419 2.811 10.559z"/><path d="m395.099 87.712h-93.403c-4.267 0-7.726 3.459-7.726 7.726s3.459 7.726 7.726 7.726h93.262c.047.001.094.002.141.002 4.267 0 7.726-3.461 7.726-7.728 0-4.266-3.459-7.726-7.726-7.726z"/><path d="m458.376 193.624c1.431 2.479 4.028 3.865 6.698 3.865 1.311 0 2.639-.334 3.856-1.037 3.696-2.133 4.962-6.859 2.828-10.554l-47.361-82.032c-2.133-3.695-6.859-4.963-10.554-2.828-3.696 2.133-4.962 6.859-2.828 10.554z"/><path d="m468.931 208.506c-3.696-2.134-8.421-.867-10.554 2.828l-47.648 82.529c-2.134 3.696-.868 8.421 2.828 10.554 1.217.703 2.545 1.037 3.856 1.037 2.67 0 5.267-1.386 6.698-3.865l47.648-82.529c2.133-3.696.867-8.421-2.828-10.554z"/><path d="m395.099 301.793h-93.403c-4.267 0-7.726 3.459-7.726 7.726s3.459 7.726 7.726 7.726h93.403c4.267 0 7.726-3.459 7.726-7.726s-3.459-7.726-7.726-7.726z"/><path d="m97.832 208.64c-3.696-2.135-8.421-.867-10.554 2.828l-47.654 82.539c-2.134 3.696-.867 8.421 2.828 10.554 1.217.703 2.545 1.037 3.856 1.037 2.67 0 5.268-1.386 6.698-3.865l47.654-82.539c2.134-3.696.868-8.421-2.828-10.554z"/><path d="m210.354 194.753-94.089-.001c-4.267 0-7.726 3.459-7.726 7.726s3.459 7.726 7.726 7.726l94.089.001c4.267 0 7.726-3.459 7.726-7.726s-3.459-7.726-7.726-7.726z"/><path d="m239.022 211.334c-2.134-3.696-6.859-4.961-10.554-2.828-3.696 2.133-4.962 6.859-2.828 10.554l47.731 82.673c1.431 2.479 4.028 3.865 6.698 3.865 1.311 0 2.639-.334 3.856-1.037 3.696-2.133 4.962-6.859 2.828-10.554z"/><path d="m283.925 314.477c-3.696-2.135-8.42-.867-10.554 2.828l-47.654 82.539c-2.134 3.696-.868 8.421 2.828 10.554 1.217.703 2.545 1.037 3.856 1.037 2.67 0 5.267-1.386 6.698-3.865l47.654-82.539c2.134-3.696.868-8.421-2.828-10.554z"/><path d="m210.354 408.832h-94.089c-4.267 0-7.726 3.459-7.726 7.726s3.459 7.726 7.726 7.726h94.089c4.267 0 7.726-3.459 7.726-7.726 0-4.266-3.459-7.726-7.726-7.726z"/><path d="m54.277 319.505c-2.133-3.696-6.859-4.962-10.554-2.828-3.695 2.133-4.961 6.859-2.828 10.554l46.383 80.339c1.431 2.479 4.028 3.865 6.698 3.865 1.311 0 2.639-.334 3.856-1.037 3.695-2.133 4.961-6.859 2.828-10.554z"/></g><circle cx="244.823" cy="22.365" fill="#6ed6a2" r="22.365"/><circle cx="267.179" cy="489.635" fill="#ff7ab9" r="22.365"/><circle cx="286.788" cy="95.441" fill="#ffe02f" r="22.365"/><circle cx="472.41" cy="202.48" fill="#8896e0" r="22.365"/><circle cx="224.988" cy="202.48" fill="#ff7ab9" r="22.365"/><circle cx="100.958" cy="202.48" fill="#8896e0" r="22.365"/><circle cx="224.988" cy="416.559" fill="#98d829" r="22.365"/><circle cx="100.958" cy="416.559" fill="#ffe02f" r="22.365"/><circle cx="410.319" cy="95.441" fill="#60b9fe" r="22.365"/><circle cx="286.788" cy="309.519" fill="#8896e0" r="22.365"/><circle cx="39.59" cy="309.519" fill="#60b9fe" r="22.365"/><circle cx="410.319" cy="309.519" fill="#6ed6a2" r="22.365"/><path d="m243.834 22.365c0-8.481 4.721-15.858 11.677-19.65-3.176-1.731-6.817-2.715-10.689-2.715-12.352 0-22.365 10.013-22.365 22.365s10.013 22.365 22.365 22.365c3.871 0 7.513-.984 10.688-2.715-6.956-3.792-11.676-11.169-11.676-19.65z" fill="#00c479"/><path d="m266.19 489.635c0-8.481 4.721-15.858 11.677-19.65-3.176-1.731-6.817-2.715-10.688-2.715-12.352 0-22.365 10.013-22.365 22.365s10.013 22.365 22.365 22.365c3.871 0 7.513-.984 10.688-2.715-6.957-3.792-11.677-11.169-11.677-19.65z" fill="#ff5ca8"/><path d="m285.799 95.441c0-8.48 4.721-15.858 11.677-19.65-3.176-1.731-6.817-2.715-10.688-2.715-12.352 0-22.365 10.013-22.365 22.365s10.013 22.365 22.365 22.365c3.871 0 7.512-.984 10.688-2.715-6.957-3.792-11.677-11.169-11.677-19.65z" fill="#fbc700"/><path d="m471.422 202.48c0-8.48 4.721-15.858 11.677-19.65-3.176-1.731-6.817-2.715-10.688-2.715-12.352 0-22.365 10.013-22.365 22.365s10.013 22.365 22.365 22.365c3.871 0 7.512-.984 10.688-2.715-6.957-3.792-11.677-11.17-11.677-19.65z" fill="#6b7ed9"/><path d="m223.999 202.48c0-8.48 4.721-15.858 11.677-19.65-3.176-1.731-6.817-2.715-10.688-2.715-12.352 0-22.365 10.013-22.365 22.365s10.013 22.365 22.365 22.365c3.871 0 7.513-.984 10.688-2.715-6.956-3.792-11.677-11.17-11.677-19.65z" fill="#ff5ca8"/><path d="m99.969 202.48c0-8.48 4.721-15.858 11.677-19.65-3.176-1.731-6.817-2.715-10.688-2.715-12.352 0-22.365 10.013-22.365 22.365s10.013 22.365 22.365 22.365c3.871 0 7.513-.984 10.688-2.715-6.956-3.792-11.677-11.17-11.677-19.65z" fill="#6b7ed9"/><path d="m223.999 416.559c0-8.48 4.721-15.858 11.677-19.65-3.176-1.731-6.817-2.715-10.688-2.715-12.352 0-22.365 10.013-22.365 22.365s10.013 22.365 22.365 22.365c3.871 0 7.513-.984 10.688-2.715-6.956-3.792-11.677-11.17-11.677-19.65z" fill="#8cc825"/><path d="m99.969 416.559c0-8.48 4.721-15.858 11.677-19.65-3.176-1.731-6.817-2.715-10.688-2.715-12.352 0-22.365 10.013-22.365 22.365s10.013 22.365 22.365 22.365c3.871 0 7.513-.984 10.688-2.715-6.956-3.792-11.677-11.17-11.677-19.65z" fill="#fbc700"/><path d="m409.331 95.441c0-8.48 4.721-15.858 11.677-19.65-3.176-1.731-6.817-2.715-10.688-2.715-12.352 0-22.365 10.013-22.365 22.365s10.013 22.365 22.365 22.365c3.871 0 7.513-.984 10.688-2.715-6.957-3.792-11.677-11.169-11.677-19.65z" fill="#1ca8ff"/><path d="m285.799 309.519c0-8.481 4.721-15.858 11.677-19.65-3.176-1.731-6.817-2.715-10.688-2.715-12.352 0-22.365 10.013-22.365 22.365s10.013 22.365 22.365 22.365c3.871 0 7.512-.984 10.688-2.715-6.957-3.792-11.677-11.17-11.677-19.65z" fill="#6b7ed9"/><path d="m38.601 309.519c0-8.481 4.721-15.858 11.677-19.65-3.176-1.731-6.817-2.715-10.688-2.715-12.352 0-22.365 10.013-22.365 22.365s10.013 22.365 22.365 22.365c3.871 0 7.513-.984 10.688-2.715-6.957-3.792-11.677-11.17-11.677-19.65z" fill="#1ca8ff"/><path d="m409.331 309.519c0-8.481 4.721-15.858 11.677-19.65-3.176-1.731-6.817-2.715-10.688-2.715-12.352 0-22.365 10.013-22.365 22.365s10.013 22.365 22.365 22.365c3.871 0 7.513-.984 10.688-2.715-6.957-3.792-11.677-11.17-11.677-19.65z" fill="#00c479"/></g></svg>