<svg id="Icon_Set" enable-background="new 0 0 256 256" height="512" viewBox="0 0 256 256" width="512" xmlns="http://www.w3.org/2000/svg"><path d="m12.312 6.002h231.377c2.761 0 5 2.675 5 5.975v166.047c0 3.3-2.239 5.975-5 5.975h-231.377c-2.761 0-5-2.675-5-5.975v-166.046c0-3.3 2.238-5.976 5-5.976z" fill="#ffe2e2"/><path d="m86.572 227.399v18.002c0 2.539-2.058 4.597-4.597 4.597h-54.66c-2.539 0-4.597-2.058-4.597-4.597v-18.002c0-14.61 9.798-26.665 22.607-30.537 2.947-.902 6.07-1.386 9.314-1.386s6.368.484 9.314 1.386c13.361 4.112 22.619 16.387 22.619 30.537z" fill="#5fcdff"/><path d="m156.118 226.609v18.791c0 2.539-2.058 4.597-4.597 4.597h-48.936c-2.539 0-4.597-2.058-4.597-4.597v-18.791c0-16.072 13.054-29.06 29.061-29.06 16.057 0 29.069 13.031 29.069 29.06z" fill="#ff4a73"/><path d="m233.35 226.332v19.068c0 2.539-2.058 4.597-4.597 4.597h-52.954c-2.539 0-4.597-2.058-4.597-4.597v-19.068c0-17.162 13.939-31.068 31.068-31.068 17.101 0 31.08 13.876 31.08 31.068z" fill="#5fcdff"/><path d="m118.445 121.544v28.064c0 3.301-2.299 5.968-5.144 5.968h-72.592c-2.84 0-5.144-2.668-5.144-5.968v-28.064c0-13.063 4.488-24.903 11.788-33.552 7.316-8.773 17.868-14.522 29.647-14.522 12.133 0 23.126 6.164 30.573 15.628 6.747 8.553 10.872 19.946 10.872 32.446z" fill="#3193f3"/><path d="m220.772 114.523h-72.105c-2.761 0-5-2.239-5-5v-72.105c0-2.761 2.239-5 5-5h72.105c2.761 0 5 2.239 5 5v72.105c0 2.762-2.238 5-5 5z" fill="#f9d335"/><path d="m248.69 11.98v166.04c0 3.3-2.24 5.98-5 5.98h-15c2.76 0 5-2.68 5-5.98v-166.04c0-3.3-2.24-5.98-5-5.98h15c2.76 0 5 2.68 5 5.98z" fill="#ffcfcf"/><path d="m27.31 184h-15c-2.76 0-5-2.68-5-5.98v-166.04c0-3.3 2.24-5.98 5-5.98h15c-2.76 0-5 2.68-5 5.98v166.04c0 3.3 2.24 5.98 5 5.98z" fill="#ffefee"/><path d="m225.77 37.42v72.1c0 2.76-2.24 5-5 5h-15c2.76 0 5-2.24 5-5v-72.1c0-2.76-2.24-5-5-5h15c2.76 0 5 2.24 5 5z" fill="#f2c300"/><path d="m163.67 114.52h-15c-2.76 0-5-2.24-5-5v-72.1c0-2.76 2.24-5 5-5h15c-2.76 0-5 2.24-5 5v72.1c0 2.76 2.24 5 5 5z" fill="#f9e27d"/><path d="m118.44 121.54v28.07c0 3.3-2.29 5.97-5.14 5.97h-15c2.85 0 5.14-2.67 5.14-5.97v-28.07c0-12.5-4.12-23.89-10.87-32.44-5.87-7.47-13.96-12.88-23.07-14.84 2.43-.52 4.93-.79 7.5-.79 12.13 0 23.13 6.16 30.57 15.63 6.75 8.55 10.87 19.94 10.87 32.44z" fill="#307fed"/><path d="m84.5 74.26c-8.72 1.86-16.42 6.87-22.15 13.73-7.3 8.65-11.78 20.49-11.78 33.55v28.07c0 3.3 2.3 5.97 5.14 5.97h-15c-2.84 0-5.14-2.67-5.14-5.97v-28.07c0-13.06 4.48-24.9 11.78-33.55 7.32-8.77 17.87-14.52 29.65-14.52 2.56 0 5.07.27 7.5.79z" fill="#35b1fc"/><path d="m95.09 77.68c-1.84 4.38-4.5 10.71-8.78 20.94-4.14 9.89-14.48 9.89-18.62 0-4.16-9.93-6.88-16.43-8.81-21.04 4.7 5.08 11.25 7.69 18.12 7.69 7.25 0 13.57-2.98 18.09-7.59z" fill="#ffbb98"/><path d="m83 103.53c-4.89 4.55-12.04 2.91-15.31-4.91-4.16-9.93-6.88-16.43-8.81-21.04 4.02 4.34 9.39 6.88 15.15 7.52 1.52 3.64 3.37 8.06 5.66 13.52.87 2.07 2.01 3.71 3.31 4.91z" fill="#ffcaa6"/><path d="m101.925 54.901c-2.298-11.667-12.579-20.459-24.925-20.459-12.448 0-22.803 8.95-24.98 20.775-2.375 12.213 6.453 30.052 24.98 30.052 16.487 0 28.17-15.43 24.925-30.368z" fill="#ffbb98"/><path d="m77 85.27c-2.75 0-5.28-.39-7.59-1.1 12.4-3.76 20.25-16.69 17.51-29.27-1.81-9.2-8.58-16.62-17.42-19.33 2.37-.74 4.89-1.13 7.5-1.13 12.35 0 22.63 8.79 24.92 20.46 3.25 14.94-8.43 30.37-24.92 30.37z" fill="#ffaa80"/><path d="m84.41 84.17c-2.32.72-4.81 1.1-7.41 1.1-18.53 0-27.36-17.84-24.98-30.05 2.18-11.83 12.53-20.78 24.98-20.78 2.61 0 5.13.39 7.5 1.13-8.94 2.75-15.76 10.3-17.48 19.65-2.03 10.4 4.08 24.89 17.39 28.95z" fill="#ffcaa6"/><path d="m43.345 53.175v3.215h6.351c4.42 0 8.507-2.577 10.722-6.772l3.558-6.772 3.567 6.772c2.253 4.267 6.388 6.772 10.722 6.772h32.401v-3.215c0-18.582-15.067-33.655-33.656-33.655-18.545 0-33.665 15.015-33.665 33.655z" fill="#87828e"/><path d="m110.67 53.18v3.21h-15v-3.21c0-16.01-11.17-29.41-26.15-32.82 2.41-.55 4.92-.84 7.49-.84 18.59 0 33.66 15.07 33.66 33.66z" fill="#796e84"/><path d="m84.52 20.36c-14.75 3.35-25.88 16.41-26.17 32.17-2.28 2.44-5.37 3.86-8.65 3.86h-6.36v-3.21c0-18.64 15.13-33.66 33.67-33.66 2.58 0 5.09.29 7.51.84z" fill="#a4a4a5"/><path d="m86.57 227.4v18c0 2.54-2.06 4.6-4.6 4.6h-15c2.54 0 4.6-2.06 4.6-4.6v-18c0-14.15-9.26-26.43-22.62-30.54-.6-.18-1.2-.35-1.81-.49 2.41-.59 4.91-.89 7.5-.89 3.24 0 6.37.48 9.31 1.38 13.36 4.11 22.62 16.39 22.62 30.54z" fill="#30b6ff"/><path d="m62.14 196.37c-.61.14-1.22.31-1.82.49-12.8 3.87-22.6 15.93-22.6 30.54v18c0 2.54 2.06 4.6 4.59 4.6h-15c-2.53 0-4.59-2.06-4.59-4.6v-18c0-14.61 9.8-26.67 22.6-30.54 2.95-.9 6.07-1.38 9.32-1.38 2.58 0 5.1.31 7.5.89z" fill="#73d7f9"/><path d="m57.421 138.596c-4.377 0-8.505 1.055-12.156 2.916.145-1.904-.356-3.559-1.574-4.579-2.676-2.241-7.764-.572-11.363 3.728-2.572 3.074-3.678 6.654-3.128 9.267-2.392 1.027-4.16 4.603-4.16 8.87 0 5.068 2.492 9.176 5.564 9.176h.752c-.53 1.987-.816 4.072-.816 6.225 0 13.312 10.791 24.103 24.104 24.103 13.312 0 24.103-10.792 24.103-24.103 0-2.187-.297-4.304-.842-6.318.995.143 1.518.092 6.343.092v-2.561c-.002-14.824-12.02-26.816-26.827-26.816z" fill="#87828e"/><path d="m156.12 226.61v18.79c0 2.54-2.06 4.6-4.6 4.6h-15c2.54 0 4.6-2.06 4.6-4.6v-18.79c0-13.44-9.15-24.77-21.57-28.08 2.39-.64 4.91-.98 7.5-.98 16.06 0 29.07 13.03 29.07 29.06z" fill="#ea2a6a"/><path d="m112.99 226.61v18.79c0 2.54 2.06 4.6 4.6 4.6h-15c-2.54 0-4.6-2.06-4.6-4.6v-18.79c0-16.07 13.05-29.06 29.06-29.06 2.59 0 5.11.34 7.5.98-12.39 3.31-21.56 14.61-21.56 28.08z" fill="#f973a3"/><path d="m127.07 220.095c-14.54 0-26.327-11.787-26.327-26.327v-23.656c0-14.54 11.787-26.327 26.327-26.327 14.54 0 26.327 11.787 26.327 26.327v23.656c0 14.541-11.787 26.327-26.327 26.327z" fill="#87828e"/><path d="m233.35 226.33v19.07c0 2.54-2.06 4.6-4.6 4.6h-15c2.54 0 4.6-2.06 4.6-4.6v-19.07c0-14.59-10.08-26.8-23.58-30.15 2.4-.6 4.91-.92 7.5-.92 17.1 0 31.08 13.88 31.08 31.07z" fill="#30b6ff"/><path d="m186.2 226.33v19.07c0 2.54 2.06 4.6 4.6 4.6h-15c-2.54 0-4.6-2.06-4.6-4.6v-19.07c0-17.16 13.94-31.07 31.07-31.07 2.58 0 5.09.32 7.5.92-13.52 3.35-23.57 15.58-23.57 30.15z" fill="#73d7f9"/><path d="m233.35 168.392c0-17.161-13.917-31.07-31.069-31.07-17.148 0-31.078 13.895-31.078 31.069v2.968h5.863c.677 0 1.343-.072 1.996-.198-2.058 14.208 8.969 26.855 23.211 26.855 14.161 0 25.206-12.516 23.242-26.658h7.836z" fill="#87828e"/><path d="m84.25 165.41v2.57c-4.83 0-5.35.05-6.35-.1.55 2.02.85 4.13.85 6.32 0 13.31-10.79 24.1-24.11 24.1-2.62 0-5.14-.42-7.5-1.19 9.65-3.15 16.61-12.22 16.61-22.91 0-2.19-.3-4.3-.85-6.32 1 .15 1.52.1 6.35.1v-2.57c0-12.21-8.16-22.5-19.33-25.74 2.38-.7 4.89-1.07 7.5-1.07 14.81 0 26.83 11.99 26.83 26.81z" fill="#796e84"/><path d="m62.14 197.11c-2.36.77-4.88 1.19-7.5 1.19-13.31 0-24.1-10.79-24.1-24.1 0-2.15.29-4.24.82-6.22h-.76c-3.07 0-5.56-4.11-5.56-9.18 0-4.27 1.77-7.84 4.16-8.87-.55-2.61.56-6.19 3.13-9.27 3.6-4.3 8.68-5.97 11.36-3.73 1.22 1.02 1.72 2.68 1.58 4.58.71-.36 1.44-.69 2.18-.99-.04.04-.08.09-.12.14-2.57 3.08-3.68 6.66-3.13 9.27-2.39 1.03-4.16 4.6-4.16 8.87 0 5.07 2.49 9.18 5.56 9.18h.76c-.53 1.98-.82 4.07-.82 6.22 0 10.69 6.96 19.76 16.6 22.91z" fill="#a4a4a5"/><path d="m153.4 170.11v23.66c0 14.54-11.79 26.33-26.33 26.33-2.61 0-5.12-.38-7.5-1.09 10.89-3.23 18.83-13.31 18.83-25.24v-23.66c0-7.27-2.95-13.85-7.71-18.61-3.06-3.05-6.86-5.36-11.12-6.62 2.38-.71 4.89-1.09 7.5-1.09 7.27 0 13.85 2.95 18.62 7.71 4.76 4.76 7.71 11.34 7.71 18.61z" fill="#796e84"/><path d="m134.57 219.01c-2.38.71-4.89 1.09-7.5 1.09-14.54 0-26.33-11.79-26.33-26.33v-23.66c0-14.54 11.79-26.32 26.33-26.32 2.61 0 5.12.38 7.5 1.09-10.89 3.22-18.83 13.3-18.83 25.23v23.66c0 11.93 7.94 22.01 18.83 25.24z" fill="#a4a4a5"/><path d="m233.35 171.36h-7.84c1.97 14.14-9.08 26.66-23.24 26.66-2.63 0-5.15-.43-7.5-1.23 10.31-3.47 17.34-13.91 15.74-25.43h7.84v-2.97c0-14.57-10.04-26.8-23.57-30.15 2.4-.6 4.91-.92 7.5-.92 17.15 0 31.07 13.91 31.07 31.07z" fill="#796e84"/><path d="m209.77 196.79c-2.35.8-4.87 1.23-7.5 1.23-14.24 0-25.27-12.65-23.21-26.86-.65.13-1.32.2-1.99.2h-5.87v-2.97c0-17.17 13.93-31.07 31.08-31.07 2.59 0 5.1.32 7.5.92-13.53 3.35-23.58 15.57-23.58 30.15v2.97h5.87c.67 0 1.34-.07 1.99-.2-1.68 11.58 5.34 22.13 15.71 25.63z" fill="#a4a4a5"/><g fill="#5f266d"><path d="m243.69 2h-231.38c-4.96 0-9 4.48-9 9.98v166.04c0 5.51 4.04 9.98 9 9.98h17.86c1.76 3.12 4.11 5.87 6.88 8.09-11.08 6.25-18.33 18.23-18.33 31.31v18c0 4.74 3.85 8.6 8.6 8.6h54.65c4.74 0 8.6-3.86 8.6-8.6v-18c0-13.24-7.12-25.05-18.32-31.32 2.77-2.22 5.11-4.96 6.87-8.08h17.62v5.77c0 4.95 1.19 9.63 3.32 13.76-3.82 5.4-6.07 11.98-6.07 19.08v18.79c0 4.74 3.85 8.6 8.6 8.6h48.93c4.74 0 8.6-3.86 8.6-8.6v-18.79c0-7.08-2.24-13.66-6.06-19.05 2.14-4.14 3.34-8.83 3.34-13.79v-5.77h20.95c1.628 2.927 3.882 5.641 6.6 7.85-10.59 6.03-17.75 17.44-17.75 30.48v19.07c0 4.74 3.86 8.6 8.6 8.6h52.95c4.74 0 8.6-3.86 8.6-8.6v-19.07c0-13.04-7.16-24.45-17.76-30.48 2.626-2.109 4.95-4.826 6.63-7.85h17.47c4.96 0 9-4.47 9-9.98v-166.04c0-5.5-4.04-9.98-9-9.98zm1 176.02c0 1.29-.71 1.98-1 1.98h-14.5c.32-1.52.5-3.08.54-4.64h3.62c2.213 0 4-1.788 4-4v-2.97c0-19.34-15.73-35.07-35.07-35.07s-35.08 15.73-35.08 35.07v2.97c0 2.21 1.79 4 4 4h3.63c.04 1.57.23 3.12.54 4.64h-17.97v-9.89c0-16.72-13.61-30.32-30.33-30.32-1.57 0-3.12.12-4.63.35v-18.6c0-12.93-4.16-25.33-11.72-34.92-2.93-3.72-6.28-6.89-9.95-9.46 3.65-4.99 5.62-10.84 5.69-16.77h4.21c2.21 0 4-1.79 4-4v-3.22c0-20.76-16.9-37.65-37.66-37.65-20.77 0-37.67 16.89-37.67 37.65v3.22c0 2.21 1.8 4 4 4h4.31c.21 5.78 2.22 11.72 5.72 16.68-3.31 2.3-6.37 5.1-9.07 8.34-8.21 9.73-12.73 22.56-12.73 36.13v14.22c-.82.7-1.6 1.49-2.31 2.34-2.56 3.06-4.04 6.58-4.19 9.85-2.51 2.37-4.03 6.32-4.03 10.85 0 5.59 2.28 10.16 5.69 12.13-.13 1.09-.19 2.18-.19 3.27 0 1.99.21 3.93.6 5.8h-14.83c-.29 0-1-.69-1-1.98v-166.04c0-1.28.71-1.98 1-1.98h231.38c.29 0 1 .7 1 1.98zm-42.42 16c-11.78 0-20.938-10.474-19.25-22.29.358-2.41-1.543-4.57-3.96-4.57 0 0-1.01.2-3.84.2.55-14.45 12.48-26.04 27.06-26.04s26.51 11.59 27.05 26.04h-3.82c-2.432 0-4.292 2.166-3.96 4.55 1.612 11.629-7.459 22.11-19.28 22.11zm27.08 51.38c0 .33-.27.6-.6.6h-52.95c-.33 0-.6-.27-.6-.6v-19.07c0-11.94 7.77-22.1 18.52-25.68 2.73.9 5.61 1.37 8.55 1.37 2.93 0 5.81-.47 8.55-1.37 10.75 3.58 18.53 13.74 18.53 25.68zm-77.23 0c0 .33-.27.6-.6.6h-48.93c-.33 0-.6-.27-.6-.6v-18.79c0-4.35 1.11-8.45 3.07-12.01 5.53 5.84 13.35 9.49 22.01 9.49 8.65 0 16.47-3.64 21.99-9.47 1.95 3.56 3.06 7.65 3.06 11.99zm-2.72-51.63c0 29.424-44.66 29.471-44.66 0 0-2.681 0-21.244 0-23.66 0-29.272 44.66-29.657 44.66 0zm-94.76.53c-11.05 0-20.1-9.007-20.1-20.1 0-1.75.23-3.5.68-5.19.682-2.559-1.245-5.03-3.86-5.03h-.64c-.54-.34-1.68-2.15-1.68-5.18 0-3.13 1.23-4.96 1.74-5.2 1.76-.77 2.73-2.628 2.33-4.49-.531-2.593 2.625-7.672 6.46-8.95.01 0 .02-.01.03-.01.99-.33 1.48-.18 1.52-.15.05.05.22.42.16 1.21-.24 3.139 3.055 5.264 5.8 3.87 3.23-1.65 6.71-2.48 10.34-2.48 8.896 0 16.843 5.155 20.59 12.98 1.255 2.572 2.023 5.592 2.19 8.4h-.08c-1.07 0-1.32-.01-1.65-.06-2.871-.388-5.171 2.257-4.43 5.01.47 1.72.71 3.5.71 5.27 0 11.116-9.051 20.1-20.11 20.1zm27.93 51.1c0 .33-.27.6-.6.6h-54.65c-.33 0-.6-.27-.6-.6v-18c0-11.99 7.84-22.8 19.16-26.51 2.76.92 5.7 1.41 8.76 1.41s6-.49 8.76-1.41c11.5 3.82 19.17 14.39 19.17 26.51zm-4.3-193.01c-2.93 0-5.68-1.78-7.19-4.64l-3.57-6.77c-1.69-3.037-5.723-2.655-7.08 0-.444.843.115-.223-3.55 6.77-1.442 2.743-4.157 4.64-7.18 4.64-.859 0-1.444 0-2.34 0 .41-15.99 13.56-28.87 29.65-28.87s29.23 12.88 29.65 28.87c-22.238 0-6.031 0-28.39 0zm-14.31-.91.02-.04.03.04c2.9 5.5 8.36 8.91 14.26 8.91h20.19c-.222 11.197-9.685 20.88-21.46 20.88-13.283 0-21.438-11.36-21.37-22.09 3.47-1.43 6.45-4.12 8.33-7.7zm22.59 36.21c-1.14 2.71-2.43 5.81-3.93 9.39-2.771 6.607-8.475 6.605-11.24-.01l-3.91-9.33c.02 0 .04.01.07.02 6.689 2.228 12.738 1.814 19.01-.07zm-22.55 12.48c5.523 13.178 20.48 13.184 26-.01 2.91-6.95 5.07-12.09 6.72-16.05 2.82 2.06 5.42 4.56 7.71 7.47 6.46 8.18 10.01 18.82 10.01 29.96v21.02c-4.48 2.05-8.37 5.16-11.35 9.02h-18.13c-5.07-10.06-15.51-16.98-27.54-16.98-3.21 0-6.34.48-9.34 1.44-.47-.82-1.08-1.56-1.82-2.17-1.79-1.5-4.14-2.14-6.69-1.86v-10.47c0-11.68 3.85-22.68 10.86-30.99 2.06-2.47 4.37-4.63 6.85-6.44zm18.66 71.81h1.59c2.21 0 4-1.8 4-4v-2.57c0-1.99-.19-3.94-.56-5.83h10.94c-1.22 3.28-1.89 6.83-1.89 10.53v9.89h-14.59c.39-1.87.6-3.81.6-5.8 0-.74-.03-1.48-.09-2.22z"/><path d="m220.77 28.42h-72.1c-4.97 0-9 4.04-9 9v72.1c0 4.97 4.03 9 9 9h72.1c4.97 0 9-4.03 9-9v-72.1c0-4.96-4.03-9-9-9zm1 81.1c0 .56-.45 1-1 1h-72.1c-.55 0-1-.44-1-1v-72.1c0-.55.45-1 1-1h72.1c.55 0 1 .45 1 1z"/><path d="m206.39 50.52h-43.34c-5.285 0-5.293 8 0 8h43.34c5.288 0 5.285-8 0-8z"/><path d="m206.39 69.47h-43.34c-5.285 0-5.293 8 0 8h43.34c5.288 0 5.285-8 0-8z"/><path d="m206.39 88.42h-43.34c-5.285 0-5.293 8 0 8h43.34c5.288 0 5.285-8 0-8z"/><path d="m64 232h-1.15c-5.284 0-5.292 8 0 8h1.15c5.285 0 5.293-8 0-8z"/><path d="m47.85 232h-5.06c-.08 0-.16 0-.22-.01 0-7.766 0-7.574 0-12.22 0-5.281-8-5.294-8 0v13.23c0 3.92 3.61 7 8.22 7h5.06c5.288 0 5.285-8 0-8z"/></g></svg>